/* XPM */
static char *result[] = {
/* columns rows colors chars-per-pixel */
"70 70 54 1 ",
"  c #AE7640",
". c #AF7741",
"X c #B07943",
"o c #B07944",
"O c #B07A45",
"+ c #B27A45",
"@ c #B37C47",
"# c #B57D48",
"$ c #B67F4A",
"% c #BB8044",
"& c #BB8045",
"* c #BC8147",
"= c #BC8248",
"- c #BD834A",
"; c #B8804C",
": c #B9824E",
"> c #BA844F",
", c #BE854D",
"< c #BF864E",
"1 c #BC8551",
"2 c #BD8753",
"3 c #BF8855",
"4 c #C08750",
"5 c #C08851",
"6 c #C18953",
"7 c #C18A54",
"8 c #C08A56",
"9 c #C28B56",
"0 c #C38C57",
"q c #C28B58",
"w c #C38D59",
"e c #C38D5A",
"r c #C48E5A",
"t c #C48F5B",
"y c #C58F5B",
"u c #C48F5C",
"i c #C58F5C",
"p c #C5905E",
"a c #C29061",
"s c #C79464",
"d c #C89667",
"f c #CA9A6C",
"g c #CB9C6F",
"h c #CC9E72",
"j c #CC9F75",
"k c #CEA379",
"l c #CEA37A",
"z c #D0A882",
"x c #D3AC88",
"c c #D2AD88",
"v c #D3AC89",
"b c #D2AD89",
"n c #D3AD89",
"m c None",
/* pixels */
"mmmmmmbxxvnnnnnnnnnnnnnnnnnnnnnnnnnnnnnnnnnnnnnnnnnnnnnnnnnnvxxbmmmmmm",
"mmmmbnnnnnnnnnnnnnnnnnnnnnnnnnnnnnnnnnnnnnnnnnnnnnnnnnnnnnnnnnnnnbmmmm",
"mmxnnlgddsiiiiiiiiiiiiiiiiiiiiiiiiiiiiiiiiiiiiiiiiiiiiiiiiiisddglnncmm",
"mbnhpiiiiiiiiiiiiiiiiiiiiiiiiiiiiiiiiiiiiiiiiiiiiiiiiiiiiiiiiiiiiphnbm",
"mndiiiiiiiiiiiiiiiiiiiiiiiiiiiiiiiiiiiiiiiiiiiiiiiiiiiiiiiiiiiiiiiifnm",
"cfiiiiiiiiiiiiiiiiiiiiiiiiiiiiiiiiiiiiiiiiiiiiiiiiiiiiiiiiiiiiiiiiiigb",
"kiiiiiiiiiiiiiiiiiiiiiiiiw964444479riiiiiiiiiiiiiiiiiiiiiiiiiiiiiiiiiz",
"a:::::::::::::>38iiiiiii<%%%%%%%%%%&6iiiiiiiiiiiiiiiiiiiiiiiiiiiiiiiij",
"O                @eiiii9%%%%%%%%%%%%&riiiiiiiiiiiiiiiiiiiiiiiiiiiiiiid",
"o                 :iiii4%%%%%%%%%%%%%9iiiiiiiiiiiiiiiiiiiiiiiiiiiiiiii",
"                  @iiii4%%%%%%%%%%%%%7iiiiiiiiiiiiiiiiiiiiiiiiiiiiiiii",
"                  +iiii4%%%%%%%%%%%%%9iiiiiiiiiiiiiiiiiiiiiiiiiiiiiiii",
"                  @iiii4%%%%%%%%%%%%%9iiiiiiiiiiiiiiiiiiiiiiiiiiiiiiii",
"                  @iiii4%%%%%%%%%%%%%9iiiiiiiiiiiiiiiiiiiiiiiiiiiiiiii",
"                  @iiii4%%%%%%%%%%%%%9iiiiiiiiiiiiiiiiiiiiiiiiiiiiiiii",
"                  @iiii4%%%%%%%%%%%%%9iiiiiiiiiiiiiiiiiiiiiiiiiiiiiiii",
"                  @iiii4%%%%%%%%%%%%%9iiiiiiiiiiiiiiiiiiiiiiiiiiiiiiii",
"                  @iiii5%%%%%%%%%%%%%0iiiiiiiiiiiiiiiiiiiiiiiiiiiiiiii",
"                  @iiiiw%%%%%%%%%%%%*iiiiiiiiiiiiiiiiiiiiiiiiiiiiiiiii",
"                  @iiiii6%%%%%%%%%%&0iiiiiiiiiiiiiiiiiiiiiiiiiiiiiiiii",
"                  @iiiiiiw999999999riiiiiiiiiiiiiiiiiiiiiiiiiiiiiiiiii",
"                  @iiiiiiiiiiiiiiiiiiiiiiiiiiiiiiiiiiiiiiiiiiiiiiiiiii",
"                  @iiii83:::>3qiiiiiiiiiiiiiiiiiiiiiiiiiiiiiiiiiiiiiii",
"                  @iii1        1iiiiiiiiiiiiiiiiiiiiiiiiiiiiiiiiiiiiii",
"                  @iii@        @iiiiiiiiiiiiiiiiiiiiiiiiiiiiiiiiiiiiii",
"                  @iii+        +iiiiiiiiiiiiiiiiiiiiiiiiiiiiiiiiiiiiii",
"                  @iii@        @iiiiiiiiiiiiiiiiiiiiiiiiiiiiiiiiiiiiii",
"                  @iii@        @iiiiiiiiiiiiiiiiiiiiiiiiiiiiiiiiiiiiii",
"                  ;iii@        @iiiiiiiiiiiiiiiiiiiiiiiiiiiiiiiiiiiiii",
"                 .qiii@        @iiiiiiiiiiiiiiiiiiiiiiiiiiiiiiiiiiiiii",
"@@@@@@@@@@@@@@@@#8iiii;        :iiiiiiiiiiiiiiiiiiiiiiiiiiiiiiiiiiiiii",
"iiiiiiiiiiiiiiiiiiiiiieX      @eiiiiiiiiiiiiiiiiiiiiiiiiiiiiiiiiiiiiii",
"iiiiiiiiiiiiiiiiiiiiiiiiiiiiiiiiiiiiiiiiiiiiiiiiiiiiiiiiiiiiiiiiiiiiii",
"iiiiiiiiiiiiiiiiiiiiiiiiiiiiiiiiiiiiiiiiiiiiiiiiiiiiiiiiiiiiiiiiiiiiii",
"iiiiiiiiiiiiiiiiiiiiiiiiiiiiiiiiiiiiiiiiiiiiiiiiiiiiiiiiiiiiiiiiiiiiii",
"iiiiiiiiiiiiiiiiiiiiiiiiiiiiiiiiiiiiiiiiiiiiiiiiiiiiiiiiiiiiiiiiiiiiii",
"iiiiiiiiiiiiiiiiiiiiiiiiiiiiiiiiiiiiiiiiiiiiiiiiiiiiiiiiiiiiiiiiiiiiii",
"iiiiiiiiiiiiiiiiiiiiiiiiiiiiiiiiiiiiiiiiiiiiiiiiiiiiiiiiiiiiiiiiiiiiii",
"iiiiiiiiiiiiiiiiiiiiiiiiiiiiiiiiiiiiiiiiiiiiiiiiiiiiiiiiiiiiiiiiiiiiii",
"iiiiiiiiiiiiiiiiiiiiiiiiiiiiiiiiiiiiiiiiiiiiiiiiiiiiiiiiiiiiiiiiiiiiii",
"iiiiiiiiiiiiiiiiiiiiiiiiiiiiiiiiiiiiiiiiiiiiiiiiiiiiiiiiiiiiiiiiiiiiii",
"iiiiiiiiiiiiiiiiiiiiiiiiiiiiiiiiiiiiiiiiiiiiiiiiiiiiiiiiiiiiiiiiiiiiii",
"iiiiiiiiiiiiiiiiiiiiiiiiiiiiiiiiiiiiiiiiiiie>:#@@@@@@$:1iiiiiiiiiiiiii",
"iiiiiiiiiiiiiiiiiiiiiiiiiiiiiiiiiiiiiiiiiiq.            +iiiiiiiiiiiii",
"iiiiiiiiiiiiiiiiiiiiiiiiiiiiiiiiiiiiiiiiii$              1iiiiiiiiiiii",
"iiiiiiiiiiiiiiiiiiiiiiiiiiiiiiiiiiiiiiiiii@              :iiiiiiiiiiii",
"iiiiiiiiiiiiiiiiiiiiiiiiiiiiiiiiiiiiiiiiii@              ;iiiiiiiiiiii",
"iiiiiiiiiiiiiiiiiiiiiiiiiiiiiiiiiiiiiiiiii@              :iiiiiiiiiiii",
"iiiiiiiiiiiiiiiiiiiiiiiiiiiiiiiiiiiiiiiiii@              :iiiiiiiiiiii",
"iiiiiiiiiiiiiiiiiiiiiiiiiiiiiiw999990iiiii@              :iiiiiiiiiiii",
"iiiiiiiiiiiiiiiiiiiiiiiiiiiw-%%%%%%%%%*0ii@              :iiiiiiiiiiii",
"iiiiiiiiiiiiiiiiiiiiiiiiiii,%%%%%%%%%%%*ii@              :iiiiiiiiiiii",
"iiiiiiiiiiiiiiiiiiiiiiiiiii=%%%%%%%%%%%%ii@              :iiiiiiiiiiii",
"iiiiiiiiiiiiiiiiiiiiiiiiiii-%%%%%%%%%%%%ii@              :iiiii2@+    ",
"iiiiiiiiiiiiiiiiiiiiiiiiiii-%%%%%%%%%%%%ii@              :iiiiq       ",
"iiiiiiiiiiiiiiiiiiiiiiiiiii-%%%%%%%%%%%%ii>              8iiii2       ",
"iiiiiiiiiiiiiiiiiiiiiiiiiii-%%%%%%%%%%%%iie+            $iiiii3       ",
"iiiiiiiiiiiiiiiiiiiiiiiiiii-%%%%%%%%%%%%iiie>::::::::::1iiiiii3       ",
"iiiiiiiiiiiiiiiiiiiiiiiiiii-%%%%%%%%%%%%iiiiiiiiiiiiiiiiiiiiii3       ",
"iiiiiiiiiiiiiiiiiiiiiiiiiii-%%%%%%%%%%%%iiiiiiiiiiiiiiiiiiiiii3       ",
"iiiiiiiiiiiiiiiiiiiiiiiiiii,%%%%%%%%%%%*iiiiiiiiiiiiiiiiiiiiii8       ",
"iiiiiiiiiiiiiiiiiiiiiiiiiii0%%%%%%%%%%%6iiiiiiiiiiiiiiiiiiiiiii+      ",
"uiiiiiiiiiiiiiiiiiiiiiiiiiii04444444447iiiiiiiiiiiiiiiiiiiiiiiie>:::::",
"uiiiiiiiiiiiiiiiiiiiiiiiiiiiiiiiiiiiiiiiiiiiiiiiiiiiiiiiiiiiiiiiiiiiiu",
"miiiiiiiiiiiiiiiiiiiiiiiiiiiiiiiiiiiiiiiiiiiiiiiiiiiiiiiiiiiiiiiiiiiim",
"miiiiiiiiiiiiiiiiiiiiiiiiiiiiiiiiiiiiiiiiiiiiiiiiiiiiiiiiiiiiiiiiiiiim",
"mtiiiiiiiiiiiiiiiiiiiiiiiiiiiiiiiiiiiiiiiiiiiiiiiiiiiiiiiiiiiiiiiiiimm",
"mmyiiiiiiiiiiiiiiiiiiiiiiiiiiiiiiiiiiiiiiiiiiiiiiiiiiiiiiiiiiiiiiiiymm",
"mmmmuiiiiiiiiiiiiiiiiiiiiiiiiiiiiiiiiiiiiiiiiiiiiiiiiiiiiiiiiiiiiummmm",
"mmmmmtyiiiiiiiiiiiiiiiiiiiiiiiiiiiiiiiiiiiiiiiiiiiiiiiiiiiiiiiiytmmmmm"
};
