/* XPM */
static char *result[] = {
/* columns rows colors chars-per-pixel */
"70 70 55 1 ",
"  c #CAA202",
". c #CDA401",
"X c #CEA501",
"o c #CDA402",
"O c #CEA502",
"+ c #D0A702",
"@ c #D3A902",
"# c #D6AC02",
"$ c #D8AD02",
"% c #D9AE02",
"& c #DDB101",
"* c #E1B401",
"= c #E1B402",
"- c #E3B602",
"; c #E4B701",
": c #E6B801",
"> c #E8BA01",
", c #EABB01",
"< c #EABC01",
"1 c #EBBC01",
"2 c #ECBD01",
"3 c #EDBE01",
"4 c #EEBE00",
"5 c #EFBF01",
"6 c #F1C100",
"7 c #F1C101",
"8 c #F2C200",
"9 c #F4C300",
"0 c #F5C400",
"q c #F6C500",
"w c #F8C600",
"e c #F9C700",
"r c #FBC900",
"t c #FDCA00",
"y c #FFCB00",
"u c #FFCC00",
"i c #FECD08",
"p c #FECF10",
"a c #FED018",
"s c #FED220",
"d c #FED328",
"f c #FED530",
"g c #FED638",
"h c #FEDB50",
"j c #FEDC55",
"k c #FEDC58",
"l c #FEDE60",
"z c #FEDF68",
"x c #FEE170",
"c c #FEE278",
"v c #FEE380",
"b c #FDE480",
"n c #FEE480",
"m c #FEE481",
"M c None",
/* pixels */
"MMMMMMMMMMMMMMMMMMMMMMMMMMMMMMMMMMMMMMMMMMMMMMMMMMMMMMMMMMMMMMMMMMMMMM",
"MMMMMMMMMMMMMMMMMMMMMMMMMMMMMMMMMMMMMMMMMMMMMMMMMMMMMMMMMMMMMMMMMMMMMM",
"MMMMMMMMMMMMMMMMMMMMMMMMMMMMMMMMMMMMMMMMMMMMMMMMMMMMMMMMMMMMMMMMMMMMMM",
"MMMMMMMMMMMMMMMMMMMMMMMMMMMMMMMMMMMMMMMMMMMMMMMMMMMMMMMMMMMMMMMMMMMMMM",
"MMMMMMMMMMMMMMMMMMMMMMMMMMMMMMMMMMMMMMMMMMMMMMMMMMMMMMMMMMMMMMMMMMMMMM",
"MMMMMMMMMMMMMMMMMMMMMMMMMMMMMMMMMMMMMMMMMMMMMMMMMMMMMMMMMMMMMMMMMMMMMM",
"MMMMMMMMMMMMMMMMMMMMMMMMMMMMMMMMMMMMMMMMMMMMMMMMMMMMMMMMMMMMMMMMMMMMMM",
"MMMMMMMMMMMMMMMMMMMMMMMMMMMMMMMMMMMMMMMMMMMMMMMMMMMMMMMMMMMMMMMMMMMMMM",
"MMMMMMMMMMMMMMMMMMMMMMMMMMMMMMMMMMMMMMMMMMMMMMMMMMMMMMMMMMMMMMMMMMMMMM",
"MMMMMMMMMMMMMMMMMMMMMMMMMMMMMMMMMMMMMMMMMMMMMMMMMMMMMMMMMMMMMMMMMMMMMM",
"MMMMMMMMMMMMMMMMMMMMMMMMMMMMMMMMMMMMMMMMMMMMMMMMMMMMMMMMMMMMMMMMMMMMMM",
"MMMMMMMMMMMMMMMMMMMMMMMMMMMMMMMMMMMMMMMMMMMMMMMMMMMMMMMMMMMMMMMMMMMMMM",
"MMMMMMMMMMMMMMMMMMMMMMMMMMMMMMMMMMMMMMMMMMMMMMMMMMMMMMMMMMMMMMMMMMMMMM",
"MMMMMMMMMMMMMMMMMMMMMMMMMMMMMMMMMMMMMMMMMMMMMMMMMMMMMMMMMMMMMMMMMMMMMM",
"MMMMMMMMMMMMMMMMMMMMMMMMMMMMMMMMMMMMMMMMMMMMMMMMMMMMMMMMMMMMMMMMMMMMMM",
"MMMMMMMMMMMMMMMMMMMMMMMMMMMMMMMMMMMMMMMMMMMMMMMMMMMMMMMMMMMMMMMMMMMMMM",
"MMMMMMMMMMMMMMMMMMMMMMMMMMMMMMMMMMMMMMMMMMMMMMMMMMMMMMMMMMMMMMMMMMMMMM",
"MMMMMMMMMMMMMMMMMMMMMMMMMMMMMMMMMMMMMMMMMMMMMMMMMMMMMMMMMMMMMMMMMMMMMM",
"MMMMMMMMMMMMMMMMMMMMMMMMMMMMMMMMMMMMMMMMMMMMMMMMMMMMMMMMMMMMMMMMMMMMMM",
"MMMMMMMMMMMMMMMMMMMMMMMMMMMMMbvmmmmmmmmnbMMMMMMMMMMMMMMMMMMMMMMMMMMMMM",
"MMMMMMMMMMMMMMMMMMMMMMMMMMMnmmmcllllllcmmmnMMMMMMMMMMMMMMMMMMMMMMMMMMM",
"MMMMMMMMMMMMMMMMMMMMMMMMMnmmkfiuuuuuuuupflmmvMMMMMMMMMMMMMMMMMMMMMMMMM",
"MMMMMMMMMMMMMMMMMMMMMMMMvmhauuuuuuuuuuuuuushmnMMMMMMMMMMMMMMMMMMMMMMMM",
"MMMMMMMMMMMMMMMMMMMMMMMmzsuuuuuuuuuuuuuuuuuudcvMMMMMMMMMMMMMMMMMMMMMMM",
"MMMMMMMMMMMMMMMMMMMMMMvhiuuuuuuuuuuuuuuuuuuuupznMMMMMMMMMMMMMMMMMMMMMM",
"MMMMMMMMMMMMMMMMMMMMMvkuuuuuuuuu066660uuuuuuuuixnMMMMMMMMMMMMMMMMMMMMM",
"MMMMMMMMMMMMMMMMMMMMvziuuuuuu0&.      .*wuuuuuuacbMMMMMMMMMMMMMMMMMMMM",
"MMMMMMMMMMMMMMMMMMMMciuuuuuu;   O++++O  .;uuuuuuacMMMMMMMMMMMMMMMMMMMM",
"MMMMMMMMMMMMMMMMMMMnduuuuuu; O%=------=$o ;uuuuuugnMMMMMMMMMMMMMMMMMMM",
"MMMMMMMMMMMMMMMMMMMhuuuuuu4 #-----------=# 4uuuuuulMMMMMMMMMMMMMMMMMMM",
"MMMMMMMMMMMMMMMMMMvpuuuuur.#-----,qw7-----#.ruuuuupbMMMMMMMMMMMMMMMMMM",
"MMMMMMMMMMMMMMMMMMhuuuuuu;+------euuu>-----@;uuuuuujMMMMMMMMMMMMMMMMMM",
"MMMMMMMMMMMMMMMMMMduuuuuuX=------uuuu,-----=XuuuuuudMMMMMMMMMMMMMMMMMM",
"MMMMMMMMMMMMMMMMMMuuuuuu6#-------uuuu,------%6uuuuuuMMMMMMMMMMMMMMMMMM",
"MMMMMMMMMMMMMMMMMMuuuuuu;=-------uuuu,-------:uuuuuuMMMMMMMMMMMMMMMMMM",
"MMMMMMMMMMMMMMMMMMuuuuuu<--------uuuu,-------2uuuuuuMMMMMMMMMMMMMMMMMM",
"MMMMMMMMMMMMMMMMMMuuuuuu7--------uuuu,-------7uuuuuuMMMMMMMMMMMMMMMMMM",
"MMMMMMMMMMMMMMMMMMuuuuuu7--------uuuu,-------8uuuuuuMMMMMMMMMMMMMMMMMM",
"MMMMMMMMMMMMMMMMMMuuuuuuw--------uuuu,-------wuuuuuuMMMMMMMMMMMMMMMMMM",
"MMMMMMMMMMMMMMMMMMuuuuuut--------uuuu,------;uuuuuuuMMMMMMMMMMMMMMMMMM",
"MMMMMMMMMMMMMMMMMMuuuuuuu3-------ruuu>------3uuuuuuuMMMMMMMMMMMMMMMMMM",
"MMMMMMMMMMMMMMMMMMyuuuuuur-------5tu8------;tuuuuuuuMMMMMMMMMMMMMMMMMM",
"MMMMMMMMMMMMMMMMMMMuuuuuuu7----------------8uuuuuuuMMMMMMMMMMMMMMMMMMM",
"MMMMMMMMMMMMMMMMMMMuuuuuuuu5--------------5uuuuuuuuMMMMMMMMMMMMMMMMMMM",
"MMMMMMMMMMMMMMMMMMMMuuuuuuuu9-----------;quuuuuuuuMMMMMMMMMMMMMMMMMMMM",
"MMMMMMMMMMMMMMMMMMMMuuuuuuuuue,--------1ruuuuuuuuyMMMMMMMMMMMMMMMMMMMM",
"MMMMMMMMMMMMMMMMMMMMMuuuuuuuuuur977779ruuuuuuuuuuMMMMMMMMMMMMMMMMMMMMM",
"MMMMMMMMMMMMMMMMMMMMMMuuuuuuuuuuuuuuuuuuuuuuuuuuMMMMMMMMMMMMMMMMMMMMMM",
"MMMMMMMMMMMMMMMMMMMMMMyuuuuuuuuuuuuuuuuuuuuuuuuMMMMMMMMMMMMMMMMMMMMMMM",
"MMMMMMMMMMMMMMMMMMMMMMMMuuuuuuuuuuuuuuuuuuuuuuMMMMMMMMMMMMMMMMMMMMMMMM",
"MMMMMMMMMMMMMMMMMMMMMMMMMuuuuuuuuuuuuuuuuuuuyMMMMMMMMMMMMMMMMMMMMMMMMM",
"MMMMMMMMMMMMMMMMMMMMMMMMMMyuuuuuuuuuuuuuuuuMMMMMMMMMMMMMMMMMMMMMMMMMMM",
"MMMMMMMMMMMMMMMMMMMMMMMMMMMMMuuuuuuuuuuuuMMMMMMMMMMMMMMMMMMMMMMMMMMMMM",
"MMMMMMMMMMMMMMMMMMMMMMMMMMMMMMMMMMMMMMMMMMMMMMMMMMMMMMMMMMMMMMMMMMMMMM",
"MMMMMMMMMMMMMMMMMMMMMMMMMMMMMMMMMMMMMMMMMMMMMMMMMMMMMMMMMMMMMMMMMMMMMM",
"MMMMMMMMMMMMMMMMMMMMMMMMMMMMMMMMMMMMMMMMMMMMMMMMMMMMMMMMMMMMMMMMMMMMMM",
"MMMMMMMMMMMMMMMMMMMMMMMMMMMMMMMMMMMMMMMMMMMMMMMMMMMMMMMMMMMMMMMMMMMMMM",
"MMMMMMMMMMMMMMMMMMMMMMMMMMMMMMMMMMMMMMMMMMMMMMMMMMMMMMMMMMMMMMMMMMMMMM",
"MMMMMMMMMMMMMMMMMMMMMMMMMMMMMMMMMMMMMMMMMMMMMMMMMMMMMMMMMMMMMMMMMMMMMM",
"MMMMMMMMMMMMMMMMMMMMMMMMMMMMMMMMMMMMMMMMMMMMMMMMMMMMMMMMMMMMMMMMMMMMMM",
"MMMMMMMMMMMMMMMMMMMMMMMMMMMMMMMMMMMMMMMMMMMMMMMMMMMMMMMMMMMMMMMMMMMMMM",
"MMMMMMMMMMMMMMMMMMMMMMMMMMMMMMMMMMMMMMMMMMMMMMMMMMMMMMMMMMMMMMMMMMMMMM",
"MMMMMMMMMMMMMMMMMMMMMMMMMMMMMMMMMMMMMMMMMMMMMMMMMMMMMMMMMMMMMMMMMMMMMM",
"MMMMMMMMMMMMMMMMMMMMMMMMMMMMMMMMMMMMMMMMMMMMMMMMMMMMMMMMMMMMMMMMMMMMMM",
"MMMMMMMMMMMMMMMMMMMMMMMMMMMMMMMMMMMMMMMMMMMMMMMMMMMMMMMMMMMMMMMMMMMMMM",
"MMMMMMMMMMMMMMMMMMMMMMMMMMMMMMMMMMMMMMMMMMMMMMMMMMMMMMMMMMMMMMMMMMMMMM",
"MMMMMMMMMMMMMMMMMMMMMMMMMMMMMMMMMMMMMMMMMMMMMMMMMMMMMMMMMMMMMMMMMMMMMM",
"MMMMMMMMMMMMMMMMMMMMMMMMMMMMMMMMMMMMMMMMMMMMMMMMMMMMMMMMMMMMMMMMMMMMMM",
"MMMMMMMMMMMMMMMMMMMMMMMMMMMMMMMMMMMMMMMMMMMMMMMMMMMMMMMMMMMMMMMMMMMMMM",
"MMMMMMMMMMMMMMMMMMMMMMMMMMMMMMMMMMMMMMMMMMMMMMMMMMMMMMMMMMMMMMMMMMMMMM"
};
