/* XPM */
static char *result[] = {
/* columns rows colors chars-per-pixel */
"70 70 93 2 ",
"   c #A06D3D",
".  c #A16E3D",
"X  c #A26E3D",
"o  c #A36F3D",
"O  c #A46F3D",
"+  c #A5703E",
"@  c #A6703E",
"#  c #A7713E",
"$  c #A8723E",
"%  c #A9733F",
"&  c #AA733F",
"*  c #AB743F",
"=  c #AC743F",
"-  c #AD753F",
";  c #A37141",
":  c #A47141",
">  c #A67546",
",  c #AD7540",
"<  c #AE7540",
"1  c #AD7640",
"2  c #AE7640",
"3  c #A9794B",
"4  c #AD7948",
"5  c #AF7C4C",
"6  c #B07842",
"7  c #B17943",
"8  c #B07944",
"9  c #B17A44",
"0  c #B27B44",
"q  c #B37C45",
"w  c #B47D46",
"e  c #B27C49",
"r  c #B67E48",
"t  c #B67F48",
"y  c #B77F48",
"u  c #B47F4D",
"i  c #AC7D50",
"p  c #AF7E50",
"a  c #B98046",
"s  c #B4804D",
"d  c #BA834C",
"f  c #BB834D",
"g  c #BA844C",
"h  c #BB844C",
"j  c #BA844D",
"k  c #BB844D",
"l  c #AF8154",
"z  c #B28051",
"x  c #B78352",
"c  c #B98756",
"v  c #B38559",
"b  c #B6895E",
"n  c #BB8A5B",
"m  c #BE8E5F",
"M  c #B98D63",
"N  c #BD8F63",
"B  c #BE9064",
"V  c #BC9167",
"C  c #BD9167",
"Z  c #BF956C",
"A  c #C09164",
"S  c #C09368",
"D  c #C29469",
"F  c #C0956C",
"G  c #C5986D",
"H  c #C99869",
"J  c #C9996B",
"K  c #C39971",
"L  c #C79B72",
"P  c #C69D76",
"I  c #C79D76",
"U  c #CB9D71",
"Y  c #CC9E73",
"T  c #C99F76",
"R  c #CC9F75",
"E  c #CDA177",
"W  c #C9A17A",
"Q  c #CEA279",
"!  c #CCA27B",
"~  c #CCA57F",
"^  c #CEA67F",
"/  c #CFA67F",
"(  c #CFA984",
")  c #D1A983",
"_  c #D0A984",
"`  c #D1AA85",
"'  c #D2AB87",
"]  c #D3AC88",
"[  c #D2AD88",
"{  c #D3AC89",
"}  c #D2AD89",
"|  c #D3AD89",
" . c None",
/* pixels */
" . . . . . . . . . . . . . . . . . . . . . . . . . . . . . . . . .] ] ] ] }  . . . . . . . . . . . . . . . . . . . . . . . . . . . . . . . .",
" . . . . . . . . . . . . . . . . . . . . . . . . . . . . . . .} | | | | | | |  . . . . . . . . . . . . . . . . . . . . . . . . . . . . . . .",
" . . . . . . . . . . . . . . . . . . . . . . . . . . . . . .{ ' Q U U U U E ) }  . . . . . . . . . . . . . . . . . . . . . . . . . . . . . .",
" . . . . . . . . . . . . . . . . . . . . . . . . . . . . . .` J H H H H H H H / ]  . . . . . . . . . . . . . . . . . . . . . . . . . . . . .",
" . . . . . . . . . . . . . . . . . . . . . . . . . . . . .[ Y H H H H H H H H J `  . . . . . . . . . . . . . . . . . . . . . . . . . . . . .",
" . . . . . . . . . . . . . . . . . . . . . . . . . . . . ./ H H H H H H H H H H R  . . . . . . . . . . . . . . . . . . . . . . . . . . . . .",
" . . . . . .k h h g k k k k k k k k k k k k k k k k k k k k k k k k k k k k k k k k k k k k k k k k k k k k k k k k k k g h h k  . . . . . .",
" . . . .f k k k k k k k k k k k k k k k k k k k k k k k k k k k k k k k k k k k k k k k k k k k k k k k k k k k k k k k k k k k k f  . . . .",
" . .h k k t q 7 7 6 2 2 2 2 2 2 2 2 2 2 2 2 2 2 2 2 2 2 2 2 2 2 2 2 2 2 2 2 2 2 2 2 2 2 2 2 2 2 2 2 2 2 2 2 2 2 2 2 2 2 6 7 7 q r d k j  . .",
" .k k w 2 2 2 2 2 2 2 2 2 2 2 2 2 2 2 2 2 2 2 2 2 2 2 2 2 2 2 2 2 2 2 2 2 2 2 2 2 2 2 2 2 2 2 2 2 2 2 2 2 2 2 2 2 2 2 2 2 2 2 2 2 2 w k k  .",
" .k 7 2 2 2 2 2 2 2 2 2 2 2 2 2 2 2 2 2 2 2 2 2 2 2 2 2 2 2 2 2 2 2 2 2 2 2 2 2 2 2 2 2 2 2 2 2 2 2 2 2 2 2 2 2 2 2 2 2 2 2 2 2 2 2 2 0 d  .",
"j 0 2 2 2 2 2 2 2 2 2 2 2 2 2 2 2 2 2 2 2 2 2 2 2 2 2 2 2 2 2 2 2 2 2 2 2 2 2 2 2 2 2 2 2 2 2 2 2 2 2 2 2 2 2 2 2 2 2 2 2 2 2 2 2 2 2 2 0 k ",
"y 2 2 2 2 2 2 2 2 2 2 2 2 2 2 2 2 2 2 2 2 2 2 2 2 2 2 2 2 2 2 2 2 2 2 2 2 2 2 2 2 2 2 2 2 2 2 2 2 2 2 2 2 2 2 2 2 2 2 2 2 2 2 2 2 2 2 2 2 y ",
"0 2 2 2 2 2 2 2 2 2 2 2 2 2 2 2 2 2 2 2 2 2 2 2 2 2 2 2 2 2 2 2 2 2 2 2 2 2 2 2 2 2 2 2 2 2 2 2 2 2 2 2 2 2 2 2 2 2 2 2 2 2 2 2 2 2 2 2 2 0 ",
"9 2 2 2 2 2 2 2 2 2 2 2 2 2 2 2 2 2 2 2 2 2 2 2 2 2 2 2 2 2 2 2 2 2 2 2 2 2 2 2 2 = & % # @ o o 2 2 2 2 2 2 2 2 2 2 2 2 2 2 2 2 2 2 2 2 2 2 ",
"7 2 2 2 2 2 2 2 2 2 & & & & # # # # O o o o * 2 2 2 2 = 2 2 2 2 2 2 2 - - 2 2 2 2 #             2 2 2 2 2 2 2 * & & # # # 2 2 2 2 2 2 2 2 2 ",
"2 2 2 2 2 2 2 2 2 2                         - 2 2 - +   $ 2 2 2 2 2 - X   * 2 2 2 4 i l M V P P 2 @ o o                 . 2 2 2 2 2 2 2 2 2 ",
"2 2 2 2 2 2 2 2 2 2 i i i i M M M M P P P P x 2 * X   >   % 2 2 2 2 X ; ;   $ 2 2 A | | | | | | 2 o           i i i M M C 2 2 2 2 2 2 2 2 2 ",
"2 2 2 2 2 2 2 2 2 2 | | | | | | | | | | | | 2 $     V | v   * 2 2 + ; W ( 3   + 2 A | | | | | | 2 S P P ( | | | | | | | _ 2 2 2 2 2 2 2 2 2 ",
"2 2 2 2 2 2 2 2 2 2 | | | | | | | | | | | | &   ; P | | | l   * +   W | | | v   # A | | | | | ! 2 I | | | | | | | | | | T 2 2 2 2 2 2 2 2 2 ",
"2 2 2 2 2 2 2 2 2 2 | | | | | | | | | | | T 2 z ~ | | | | ( 3     Z | | | | | F - A | | | | | T 2 ( | | | | | | | | | | T 2 2 2 2 2 2 2 2 2 ",
"2 2 2 2 2 2 2 2 2 2 | | | | | | | | | | | L s | | | | | | | ( 3 Z | | | | | | | A A | | | | | T 2 | | | | | | | | | | | D 2 2 2 2 2 2 2 2 2 ",
"2 2 2 2 2 2 2 2 2 2 | | | | | | P P P I T n 2 n | | | | | | | | | | | | | | | G 2 A | | | | | T 2 | | | | | | | | | | ! n 2 2 2 2 2 2 2 2 2 ",
"2 2 2 2 2 2 2 2 2 2 | | | | | | i i i p 2 2 2 2 m | | | | | | | | | | | | | T 2 2 A | | | | | T 2 T T L | | | | | T 2 2 2 2 2 2 2 2 2 2 2 2 ",
"2 2 2 2 2 2 2 2 2 2 | | | | | | | | | ^ 2 2 2 2 2 G | | | | | | | | | | | ! 8 2 2 N | | | | | T 2 2 2 2 | | | | | T 2 2 2 2 2 2 2 2 2 2 2 2 ",
"2 2 2 2 2 2 2 2 2 2 | | | | | | | | | T 2 2 2 2 2 2 G | | | | | | | | | ! 8 2 2 2 N | | | | | D 2 2 2 2 | | | | | T 2 2 2 2 2 2 2 2 2 2 2 2 ",
"2 2 2 2 2 2 2 2 2 2 _ | | | | | | | | B & & 2 2 2 2 $ K | | | | | | | W : * 2 2 2 N | | | | | A 2 2 2 8 | | | | | T 2 2 2 2 2 2 2 2 2 2 2 2 ",
"2 2 2 2 2 2 2 2 2 2 T | | | | ( P P P v     2 2 2 *   Z | | | | | | | ( 3   * 2 2 N | | | | | A 2 2 2 x | | | | | T 2 2 2 2 2 2 2 2 2 2 2 2 ",
"2 2 2 2 2 2 2 2 2 2 T | | | | P       i i i 2 2 *   b | | | | | | | | | ( 3   * 2 N | | | | | A 2 2 2 x | | | | | T 2 2 2 2 2 2 2 2 2 2 2 2 ",
"2 2 2 2 2 2 2 2 2 2 T | | | | | | | | | | | 2 =   v | | | | | | | | | | | ( 3   * N | | | | | A 2 2 2 x | | | | | T 2 2 2 2 2 2 2 2 2 2 2 2 ",
"2 2 2 2 2 2 2 2 2 2 T | | | | | | | | | | | - X i | | | | | | ^ | | | | | | ( 3 o N | | | | | A 2 2 2 x | | | | | T 2 2 2 2 2 2 2 2 2 2 2 2 ",
"2 2 2 2 2 2 2 2 2 2 T | | | | | | | | | | | 2 5 ( | | | | | | x D | | | | | | ( u N | | | | | c 2 2 2 x | | | | | T 2 2 2 2 2 2 2 2 2 2 2 2 ",
"2 2 2 2 2 2 2 2 2 2 T | | | | | | | | | | | 8 ^ | | | | | | D 2 2 T | | | | | | T N | | | | | x 2 2 2 x | | | | | T 2 2 2 2 2 2 2 2 2 2 2 2 ",
"2 2 2 2 2 2 2 2 2 2 T | | | | | | | | | | | 2 A | | | | | _ 8 2 2 8 ^ | | | | ! 8 A | | | | | x 2 2 2 m | | | | | T 2 2 2 2 2 2 2 2 2 2 2 2 ",
"2 2 2 2 2 2 2 2 2 2 T | | | | | | | T T T T 2 2 n | | | | n 2 2 2 2 s _ | | _ 8 2 D T D A c x 8 2 2 2 A | | | | | T 2 2 2 2 2 2 2 2 2 2 2 2 ",
"2 2 2 2 2 2 2 2 2 2 s x x x 8 2 2 2 2 2 2 2 2 2 2 s _ | T 2 2 2 2 2 2 n | _ s 2 2 2 2 2 2 2 2 2 2 2 2 A | | | _ T D 2 2 2 2 2 2 2 2 2 2 2 2 ",
"2 2 2 2 2 2 2 2 2 2 2 2 2 2 2 2 2 2 2 2 2 2 2 2 2 2 s ! e 2 2 2 2 2 2 2 A s 2 2 2 2 2 2 2 2 2 2 2 2 2 e x e 2 2 2 2 2 2 2 2 2 2 2 2 2 2 2 2 ",
"2 2 2 2 2 2 2 2 2 2 2 2 2 2 2 2 2 2 2 2 2 2 2 2 2 2 2 2 2 2 2 2 2 2 2 2 2 2 2 2 2 2 2 2 2 2 2 2 2 2 2 2 2 2 2 2 2 2 2 2 2 2 2 2 2 2 2 2 2 2 ",
"< 2 2 2 2 2 2 2 2 2 2 2 2 2 2 2 2 2 2 2 2 2 2 2 2 2 2 2 2 2 2 2 2 2 2 2 2 2 2 2 2 2 2 2 2 2 2 2 2 2 2 2 2 2 2 2 2 2 2 2 2 2 2 2 2 2 2 2 2 2 ",
"< 2 2 2 2 2 2 2 2 2 2 2 2 2 2 2 2 2 2 2 2 2 2 2 2 2 2 2 2 2 2 2 2 2 2 2 2 2 2 2 2 2 2 2 2 2 2 2 2 2 2 2 2 2 2 2 2 2 2 2 2 2 2 2 2 2 2 2 2 < ",
" .2 2 2 2 2 2 2 2 2 2 2 2 2 2 2 2 2 2 2 2 2 2 2 2 2 2 2 2 2 2 2 2 2 2 2 2 2 2 2 2 2 2 2 2 2 2 2 2 2 2 2 2 2 2 2 2 2 2 2 2 2 2 2 2 2 2 2 2  .",
" .2 2 2 2 2 2 2 2 2 2 2 2 2 2 2 2 2 2 2 2 2 2 2 2 2 2 2 2 2 2 2 2 2 2 2 2 2 2 2 2 2 2 2 2 2 2 2 2 2 2 2 2 2 2 2 2 2 2 2 2 2 2 2 2 2 2 2 2  .",
" .1 2 2 2 2 2 2 2 2 2 2 2 2 2 2 2 2 2 2 2 2 2 2 2 2 2 2 2 2 2 2 2 2 2 2 2 2 2 2 2 2 2 2 2 2 2 2 2 2 2 2 2 2 2 2 2 2 2 2 2 2 2 2 2 2 2 2  . .",
" . ., 2 2 2 2 2 2 2 2 2 2 2 2 2 2 2 2 2 2 2 2 2 2 2 2 2 2 2 2 2 2 2 2 2 2 2 2 2 2 2 2 2 2 2 2 2 2 2 2 2 2 2 2 2 2 2 2 2 2 2 2 2 2 2 2 ,  . .",
" . . . .< 2 2 2 2 2 2 2 2 2 2 2 2 2 2 2 2 2 2 2 2 2 2 2 2 2 2 2 2 2 2 2 2 2 2 2 2 2 2 2 2 2 2 2 2 2 2 2 2 2 2 2 2 2 2 2 2 2 2 2 2 <  . . . .",
" . . . . .1 2 2 2 2 2 2 2 2 2 2 2 2 2 2 2 2 2 2 2 2 2 2 2 2 2 2 2 2 2 2 2 2 2 2 2 2 2 2 2 2 2 2 2 2 2 2 2 2 2 2 2 2 2 2 2 2 2 2 1  . . . . .",
" . . . . . . . . . . . . . . . . . . . . . . . . . . . . .a a a a a a a a a a a a  . . . . . . . . . . . . . . . . . . . . . . . . . . . . .",
" . . . . . . . . . . . . . . . . . . . . . . . . . . . . .a a a a a a a a a a a a  . . . . . . . . . . . . . . . . . . . . . . . . . . . . .",
" . . . . . . . . . . . . . . . . . . . . . . . . . . . . .H H H H H H H H H H H H  . . . . . . . . . . . . . . . . . . . . . . . . . . . . .",
" . . . . . . . . . . . . . . . . . . . . . . . . . . . . .H H H H H H H H H H H H  . . . . . . . . . . . . . . . . . . . . . . . . . . . . .",
" . . . . . . . . . . . . . . . . . . . . . . . . . . . . .H H H H H H H H H H H H  . . . . . . . . . . . . . . . . . . . . . . . . . . . . .",
" . . . . . . . . . . . . . . . . . . . . . . . . . . . . .H H H H H H H H H H H H  . . . . . . . . . . . . . . . . . . . . . . . . . . . . .",
" . . . . . . . . . . . . . . . . . . . . . . . . . . . . .H H H H H H H H H H H H  . . . . . . . . . . . . . . . . . . . . . . . . . . . . .",
" . . . . . . . . . . . . . . . . . . . . . . . . . . . . .H H H H H H H H H H H H  . . . . . . . . . . . . . . . . . . . . . . . . . . . . .",
" . . . . . . . . . . . . . . . . . . . . . . . . . . . . .H H H H H H H H H H H H  . . . . . . . . . . . . . . . . . . . . . . . . . . . . .",
" . . . . . . . . . . . . . . . . . . . . . . . . . . . . .H H H H H H H H H H H H  . . . . . . . . . . . . . . . . . . . . . . . . . . . . .",
" . . . . . . . . . . . . . . . . . . . . . . . . . . . . .H H H H H H H H H H H H  . . . . . . . . . . . . . . . . . . . . . . . . . . . . .",
" . . . . . . . . . . . . . . . . . . . . . . . . . . . . .H H H H H H H H H H H H  . . . . . . . . . . . . . . . . . . . . . . . . . . . . .",
" . . . . . . . . . . . . . . . . . . . . . . . . . . . . .H H H H H H H H H H H H  . . . . . . . . . . . . . . . . . . . . . . . . . . . . .",
" . . . . . . . . . . . . . . . . . . . . . . . . . . . . .H H H H H H H H H H H H  . . . . . . . . . . . . . . . . . . . . . . . . . . . . .",
" . . . . . . . . . . . . . . . . . . . . . . . . . . . . .H H H H H H H H H H H H  . . . . . . . . . . . . . . . . . . . . . . . . . . . . .",
" . . . . . . . . . . . . . . . . . . . . . . . . . . . . .H H H H H H H H H H H H  . . . . . . . . . . . . . . . . . . . . . . . . . . . . .",
" . . . . . . . . . . . . . . . . . . . . . . . . . . . . .H H H H H H H H H H H H  . . . . . . . . . . . . . . . . . . . . . . . . . . . . .",
" . . . . . . . . . . . . . . . . . . . . . . . . . . . . .H H H H H H H H H H H H  . . . . . . . . . . . . . . . . . . . . . . . . . . . . .",
" . . . . . . . . . . . . . . . . . . . . . . . . . . . . .H H H H H H H H H H H H  . . . . . . . . . . . . . . . . . . . . . . . . . . . . .",
" . . . . . . . . . . . . . . . . . . . . . . . . . . . . .H H H H H H H H H H H H  . . . . . . . . . . . . . . . . . . . . . . . . . . . . .",
" . . . . . . . . . . . . . . . . . . . . . . . . . . . . .H H H H H H H H H H H H  . . . . . . . . . . . . . . . . . . . . . . . . . . . . .",
" . . . . . . . . . . . . . . . . . . . . . . . . . . . . .H H H H H H H H H H H H  . . . . . . . . . . . . . . . . . . . . . . . . . . . . .",
" . . . . . . . . . . . . . . . . . . . . . . . . . . . . .H H H H H H H H H H H H  . . . . . . . . . . . . . . . . . . . . . . . . . . . . .",
" . . . . . . . . . . . . . . . . . . . . . . . . . . . . .H H H H H H H H H H H H  . . . . . . . . . . . . . . . . . . . . . . . . . . . . ."
};
