/* XPM */
static char *_d899ea9562d499fef64562588c3185ddLxZHLNNSTig3ot5[] = {
/* columns rows colors chars-per-pixel */
"70 70 141 2 ",
"   c None",
".  c #3AE572",
"X  c #3FE471",
"o  c #39E575",
"O  c #3BE575",
"+  c #3AE674",
"@  c #3BE774",
"#  c #3BE675",
"$  c #3BE775",
"%  c #3BE776",
"&  c #3CE775",
"*  c #3EE476",
"=  c #3DE676",
"-  c #3CE776",
";  c #3DE776",
":  c #3BEA73",
">  c #3DE973",
",  c #3EE973",
"<  c #3FE973",
"1  c #3DEA72",
"2  c #3CEA73",
"3  c #3DEB73",
"4  c #3FEA72",
"5  c #3EEB72",
"6  c #3EEA73",
"7  c #3EEB73",
"8  c #3DEC73",
"9  c #3AE874",
"0  c #3BE874",
"q  c #3BE975",
"w  c #3AEA76",
"e  c #3CE974",
"r  c #3CE875",
"t  c #3DE875",
"y  c #3CE975",
"u  c #3DE975",
"i  c #3EE874",
"p  c #3EE974",
"a  c #3FE875",
"s  c #3EE975",
"d  c #3FE975",
"f  c #3DEA74",
"g  c #3DEB74",
"h  c #3DEA75",
"j  c #3DEB75",
"k  c #3EEA74",
"l  c #3FEA74",
"z  c #3EEB74",
"x  c #3FEB74",
"c  c #3FEA75",
"v  c #3EEB75",
"b  c #3FEB75",
"n  c #3CE876",
"m  c #3DE876",
"M  c #3CE976",
"N  c #3DE976",
"B  c #3FE976",
"V  c #3CEA76",
"C  c #3DEA76",
"Z  c #3DEB76",
"A  c #3EEA76",
"S  c #3FEA76",
"D  c #3EEB76",
"F  c #3FEB76",
"G  c #3FEA77",
"H  c #3EEB77",
"J  c #3CEC74",
"K  c #3DEC75",
"L  c #3CED75",
"P  c #3DED75",
"I  c #3EEC74",
"U  c #3FEC74",
"Y  c #3EEC75",
"T  c #3FEC75",
"R  c #3EED75",
"E  c #3DEC76",
"W  c #3DED76",
"Q  c #3DEC77",
"!  c #3DED77",
"~  c #3EEC76",
"^  c #3FEC76",
"/  c #3EED76",
"(  c #3FED76",
")  c #3EEC77",
"_  c #3FEC77",
"`  c #3EED77",
"'  c #3FED77",
"]  c #3DEE76",
"[  c #3EEC78",
"{  c #3FEC78",
"}  c #3FED78",
"|  c #3EEC79",
" . c #47DD6D",
".. c #59D46A",
"X. c #40E973",
"o. c #40EB74",
"O. c #40EA75",
"+. c #40EB75",
"@. c #40EA77",
"#. c #40EB77",
"$. c #40EC75",
"%. c #41EE75",
"&. c #40EC76",
"*. c #40ED76",
"=. c #40EC77",
"-. c #40ED77",
";. c #40EE76",
":. c #42EE76",
">. c #40E878",
",. c #40EC78",
"<. c #40ED78",
"1. c #40EC79",
"2. c #41EE78",
"3. c #46EB7D",
"4. c #BA8144",
"5. c #C19468",
"6. c #C6996D",
"7. c #CA9969",
"8. c #CA9A6B",
"9. c #C79E77",
"0. c #CC9E72",
"q. c #C89E77",
"w. c #CD9F74",
"e. c #CAA077",
"r. c #CDA076",
"t. c #CAA27B",
"y. c #CEA278",
"u. c #CFA37A",
"i. c #CDA37C",
"p. c #CFA780",
"a. c #D0A780",
"s. c #D0AA85",
"d. c #D1AA85",
"f. c #D2AA84",
"g. c #D2AB86",
"h. c #D3AC88",
"j. c #D3AE89",
"k. c #D3AE8A",
"l. c #D4AD89",
"z. c #D4AD8A",
"x. c #D4AE8A",
/* pixels */
"                                                                  z.h.h.x.x.                                                                ",
"                                                              z.x.z.x.z.x.x.x.                                                              ",
"                                                            z.h.u.r.8.r.r.y.g.x.                                                            ",
"                                                            h.8.7.7.8.7.7.8.8.i.x.                                                          ",
"                                                          z.r.7.7.7.7.7.7.7.7.8.g.                                                          ",
"                                                          i.8.8.7.7.7.7.7.7.7.7.r.                                                          ",
"            3.3.3.3.3.3.3.3.3.3.3.3.3.3.3.3.3.3.3.3.3.3.3.3.3.3.3.3.3.3.3.3.3.3.3.3.3.3.3.3.3.3.3.3.3.3.3.3.3.3.3.3.3.3.3.3.3.3.            ",
"        3.3.3.3.3.3.3.3.3.3.3.3.3.3.3.3.3.3.3.3.3.3.3.3.3.3.3.3.3.3.3.3.3.3.3.3.3.3.3.3.3.3.3.3.3.3.3.3.3.3.3.3.3.3.3.3.3.3.3.3.3.3.        ",
"    3.3.3.3.3.3.3.3.3.3.3.3.3.3.3.3.3.3.3.3.3.j ,.@.Q U j w 3.3.3.3.3.3.3.3.3.3.3.3.3.3.3.3.3.3.3.3.3.3.3.3.3.3.3.3.3.3.3.3.3.3.3.3.3.3.    ",
"  3.3.3.3.3.1 3.3.3.3.3.3.3.3.3.3.Q [ [ 2.[ 2.3.3.3.3.3.3.3.3.3.3.3.3.3.3.3.3.3.3.3.3.3.3.3.3.3.3.3.3.3.3.3.3.3.3.3.3.3.3.3.3.3.3.3.3.3.3.  ",
"  3.3.j j j @ 1 3.3.3.3.j [ U [ U Q Q U U [ U [ j j [ U U [ [ U U U %.8 U [ U [ U U ;.=.=.U 3.3.3.3.3.3.3.3.3.3.3.[ U j 3.3.3.3.3.3.3.3.3.  ",
"3.3.3.Q j j j j 3.3.U U U U [ U Q U [ [ [ U [ [ j ,.U [ U =.U [ [ U =.=.! ' [ U U =.=.=.[ U [ U =.j j %.=.=.=.j U 3.3.3.3.3.3.3.3.3.3.3.3.3.",
"..=.@.U Q @.j j 3.3.U [ [ U [ U U U U U U =.=.3.,.@.=.=.[ U [ U U U U Q U ! ! [ U [ U [ ' U ! ' 8 %.1 j =.j @.%.3.3.3.3.3.3.3.3.3.3.3.3.3.3.",
" .@.[ U j Q j j 3.3.3.3.3.3.3.3.3.3.3.3.3.3.3.3.3.3.3.3.3.3.3.3.3.3.3.3.3.3.3.3.3.3.3.3.3.3.3.3.3.3.3.3.3.3.3.3.3.3.3.3.3.3.3.3.3.3.3.3.3.3.",
". Q U [ U j j Q 3.3.3.3.3.3.3.3.3.3.3.3.3.3.3.3.3.3.3.3.3.3.3.3.3.3.3.3.3.3.3.3.3.3.3.3.3.3.3.3.3.3.3.3.3.3.3.3.3.3.3.3.3.3.3.3.3.3.3.3.3.3.",
"j U [ U [ j j Q 3.3.3.3.3.3.3.3.3.3.3.3.3.3.3.3.3.3.3.3.3.3.3.3.3.3.3.3.3.3.3.3.3.3.3.3.3.3.3.3.3.3.3.3.3.3.3.3.3.3.3.3.3.3.3.3.3.3.3.3.3.3.",
">.. w j Q U Q j 3.3.3.3.3.3.3.3.3.3.3.3.3.3.3.3.3.3.3.3.3.3.3.3.3.3.3.3.3.3.3.3.3.3.3.3.3.3.3.3.3.3.3.3.3.3.3.3.3.3.3.3.3.3.3.3.3.Q 3.3.3.3.",
"j @ O j j [ j ,.3.3.3.3.3.3.3.3.3.3.3.3.3.3.3.3.3.3.3.3.3.3.3.3.3.3.3.3.3.3.3.3.3.3.x.x.x.x.x.3.3.3.3.3.3.3.3.3.3.3.3.3.3.3.3.3.3.3.j 3.3.3.",
"= @ @ j j j U Q 3.3.x.x.x.x.x.x.x.x.x.x.x.3.3.3.3.3.3.x.3.3.3.3.3.3.3.t.g.3.3.3.3.3.x.x.x.x.x.3.3.5.q.q.g.j.x.x.j.x.x.x.3.3.3.3.3.3.[ 3.3.3.",
"@.= j O ; = =.Q 3.3.x.x.x.x.x.x.x.x.x.x.x.3.3.3.3.3.x.x.x.3.3.3.3.3.3.z.j.j.3.3.3.3.x.x.x.x.x.3.3.q.z.z.x.x.x.x.z.x.x.x.3.3.3.3.3.3.U 3.3.3.",
"[ j Q j O O Q j 3.3.x.x.x.x.x.x.x.x.z.z.x.3.3.3.3.x.x.x.x.s.3.3.3.3.x.x.x.x.x.3.3.3.x.x.x.x.x.3.3.s.x.x.x.x.x.x.x.x.x.x.3.3.3.3.U 3.[ 3.3.3.",
"2.= = Q j O Q j 3.3.x.x.x.x.x.x.x.x.z.z.x.3.3.3.x.x.x.x.x.x.s.3.3.x.x.x.x.x.x.x.3.3.x.x.x.x.x.3.3.z.x.x.x.x.x.x.x.x.x.x.3.3.3.3.[ 3.j 3.3.3.",
"2.j Q j = = O j 3.3.x.x.x.x.x.x.e.9.9.q.t.3.3.3.x.x.x.x.x.x.x.x.x.x.x.x.x.x.x.6.3.3.x.x.x.x.x.3.3.x.x.x.x.x.x.x.x.x.x.i.3.3.3.3.U 3.3.3.3.3.",
"2.U Q U w = w j 3.3.x.x.x.x.x.x.3.3.3.3.3.3.3.3.3.x.x.x.x.x.x.x.x.x.x.x.x.x.e.3.3.3.x.x.x.x.x.3.3.3.3.3.x.x.x.x.x.3.3.3.3.3.3.3.[ 3.3.3.3.3.",
"=.[ U [ w = j w 3.3.z.z.x.x.x.x.j.z.z.3.3.3.3.3.3.3.x.x.x.x.x.x.x.x.z.x.x.i.3.3.3.3.x.x.x.x.x.3.3.3.3.3.x.x.x.x.x.3.3.3.3.3.3.3.[ U 3.3.3.3.",
"j U [ U j O Q = 3.3.z.z.x.x.x.x.j.j.x.3.3.3.3.3.3.3.3.x.x.x.x.x.x.x.j.j.i.3.3.3.3.3.x.x.x.x.x.3.3.3.3.3.x.x.x.x.x.3.3.3.3.3.3.3.3.U 3.3.3.3.",
"U [ U [ O = w j 3.3.g.j.x.x.j.j.k.j.x.3.3.3.3.3.3.3.3.3.x.x.x.x.x.x.x.t.3.3.3.3.3.3.x.x.x.x.x.3.3.3.3.3.x.x.x.x.x.3.3.3.3.3.3.3.3.[ 3.3.3.3.",
"j [ [ U j = j : 3.3.e.z.x.x.j.s.9.9.e.3.3.3.3.3.3.3.3.3.x.x.x.x.x.x.x.g.3.3.3.3.3.3.x.x.x.x.x.3.3.3.3.3.x.x.x.x.x.3.3.3.3.3.3.3.3.U 3.3.3.3.",
"3.U U [ w w = 8 3.3.e.x.x.x.x.e.3.3.3.3.3.3.3.3.3.3.3.x.x.x.x.x.x.x.x.x.g.3.3.3.3.3.x.x.x.x.x.3.3.3.3.3.x.x.x.x.x.3.3.3.3.3.3.3.[ 3.3.3.3.3.",
"3.[ [ U j = j @.3.3.e.x.x.x.x.x.x.k.x.x.x.3.3.3.3.3.x.x.x.x.x.x.x.x.x.x.j.s.3.3.3.3.x.x.x.x.x.3.3.3.3.3.x.x.x.x.x.3.3.3.3.3.3.3.U 3.3.3.3.3.",
"3.[ [ [ j = = j 3.3.e.x.x.x.x.x.x.x.x.x.x.3.3.3.3.x.x.x.x.x.x.p.x.x.x.x.x.x.s.3.3.3.x.x.x.x.x.3.3.3.3.3.x.x.x.x.x.3.3.3.3.3.3.3.3.3.3.3.3.3.",
"3.U [ U j = w j 3.3.e.x.x.x.x.x.x.x.x.x.x.3.3.3.s.x.x.x.x.x.x.3.3.x.x.x.x.z.j.s.3.3.x.x.x.x.x.3.3.3.3.3.x.x.x.x.x.3.3.3.3.3.3.3.3.j 3.3.3.3.",
"3.j [ j U O j 1 3.3.e.x.x.x.x.x.x.x.x.z.k.3.3.p.x.x.x.x.x.z.3.3.3.3.x.x.x.x.x.x.3.3.k.x.x.x.x.3.3.3.3.3.x.x.x.x.x.3.3.3.3.3.3.3.3.3.3.3.3.3.",
"3.j 3.3.[ = 3.@.3.3.e.z.x.x.x.x.x.x.x.z.k.3.3.3.x.x.x.x.x.s.3.3.3.3.3.x.x.x.x.i.3.3.k.k.x.x.x.3.3.3.3.3.x.x.x.x.x.3.3.3.3.3.3.3.3.3.3.3.3.3.",
"3.3.[ 3.U w 3.3.3.3.t.z.x.x.z.z.x.x.e.e.t.3.3.3.3.x.x.x.x.3.3.3.3.3.3.3.x.z.g.3.3.3.3.3.3.3.3.3.3.3.3.3.x.x.x.k.x.3.3.3.3.3.3.3.3.3.3.3.3.3.",
"3.3.U U 3.j 3.3.3.3.3.3.3.3.3.3.3.3.3.3.3.3.3.3.3.3.3.x.3.3.3.3.3.3.3.3.x.s.3.3.3.3.3.3.3.3.3.3.3.3.3.3.x.x.x.s.t.3.3.3.3.3.3.3.3.3.j 3.3.3.",
"3.3.j U 3.j 3.3.3.3.3.3.3.3.3.3.3.3.3.3.3.3.3.3.3.3.3.3.3.3.3.3.3.3.3.3.3.3.3.3.3.3.3.3.3.3.3.3.3.3.3.3.3.3.3.3.3.3.3.3.3.3.3.3.X.3.3.3.3.3.",
"3.3.=.[ 3.w 3.3.3.3.3.3.3.3.3.3.3.3.3.3.3.3.3.3.3.3.3.3.3.3.3.3.3.3.3.3.3.3.3.3.3.3.3.3.3.3.3.3.3.3.3.3.3.3.3.3.3.3.3.3.3.3.3.3.3.3.3.3.3.3.",
"3.3.1 U U 3.3.3.3.3.3.3.3.3.3.3.3.3.3.3.3.3.3.3.3.3.3.3.3.3.3.3.3.3.3.3.3.3.3.3.3.3.3.3.3.3.3.3.3.3.3.3.3.3.3.3.3.3.3.3.3.3.3.3.3.3.3.3.3.3.",
"3.3.3.j U 3.3.3.3.3.U U [ U =.j [ U U U [ U [ U 3.3.3.3.3.3.3.3.3.3.3.3.3.3.3.3.3.3.3.3.3.3.3.3.3.3.3.3.2.Q =.U j 3.3.3.3.3.3.3.3.3.3.3.3.3.",
"  3.3.j j 3.3.3.3.3.3.j j @.j j ! U U Q [ 3.3.3.3.3.3.3.3.3.3.3.3.3.3.3.3.3.3.3.3.3.3.3.3.U U [ ! ' U Q U U 3.3.3.3.3.3.3.3.3.1 3.@.3.3.3.  ",
"  3.3.3.3.3.3.3.3.3.3.j Q 3.3.3.3.3.3.3.3.3.3.3.3.3.3.3.3.3.3.[ U U @.[ U =.U Q Q ! U [ U 3.3.3.3.3.3.3.3.3.3.3.3.j 3.3.[ =.U U 3.3.3.3.3.  ",
"  3.3.3.3.3.3.3.3.3.3.,.3.j @.3.3.3.3.3.3.3.3.3.3.3.3.3.3.3.3.3.3.3.3.3.3.3.3.3.3.3.3.3.3.3.3.3.3.3.U ! Q ! U U 3.3.3.3.[ 3.3.3.3.3.3.3.    ",
"    3.3.3.3.3.3.3.3.3.3.3.3.3.3.3.3.3.3.3.8 ! ! U U 3.3.3.3.3.3.3.3.3.3.3.3.3.3.3.3.3.3.3.3.3.3.3.3.! [ U ! ! U U 3.3.3.3.3.3.3.3.3.3.3.    ",
"        3.3.3.3.3.3.3.3.3.@.j 3.3.3.3.3.3.U ! U U [ 3.3.3.3.3.3.3.3.3.3.3.3.3.3.3.3.3.3.3.3.3.3.3.3.3.3.3.3.3.3.3.3.3.3.3.3.3.3.3.3.3.      ",
"          3.3.3.3.3.3.3.3.3.3.3.3.3.3.3.3.3.3.3.3.3.3.3.3.3.3.3.3.3.3.3.3.3.3.3.3.3.3.w w O = O = 3.3.3.3.3.3.3.3.3.3.3.3.3.3.3.3.          ",
"                                                          4.4.4.4.4.4.4.4.4.4.4.4.                                                          ",
"                                                          4.4.4.4.4.4.4.4.4.4.4.4.                                                          ",
"                                                          7.7.7.7.7.7.7.7.7.7.7.7.                                                          ",
"                                                          7.7.7.7.7.7.7.7.7.7.7.7.                                                          ",
"                                                          7.7.7.7.7.7.7.7.7.7.7.7.                                                          ",
"                                                          7.7.7.7.7.7.7.7.7.7.7.7.                                                          ",
"                                                          7.7.7.7.7.7.7.7.7.7.7.7.                                                          ",
"                                                          7.7.7.7.7.7.7.7.7.7.7.7.                                                          ",
"                                                          7.7.7.7.7.7.7.7.7.7.7.7.                                                          ",
"                                                          7.7.7.7.7.7.7.7.7.7.7.7.                                                          ",
"                                                          7.7.7.7.7.7.7.7.7.7.7.7.                                                          ",
"                                                          7.7.7.7.7.7.7.7.7.7.7.7.                                                          ",
"                                                          7.7.7.7.7.7.7.7.7.7.7.7.                                                          ",
"                                                          7.7.7.7.7.7.7.7.7.7.7.7.                                                          ",
"                                                          7.7.7.7.7.7.7.7.7.7.7.7.                                                          ",
"                                                          7.7.7.7.7.7.7.7.7.7.7.7.                                                          ",
"                                                          7.7.7.7.7.7.7.7.7.7.7.7.                                                          ",
"                                                          7.7.7.7.7.7.7.7.7.7.7.7.                                                          ",
"                                                          7.7.7.7.7.7.7.7.7.7.7.7.                                                          ",
"                                                          7.7.7.7.7.7.7.7.7.7.7.7.                                                          ",
"                                                          7.7.7.7.7.7.7.7.7.7.7.7.                                                          ",
"                                                          7.7.7.7.7.7.7.7.7.7.7.7.                                                          ",
"                                                          7.7.7.7.7.7.7.7.7.7.7.7.                                                          ",
"                                                          7.7.7.7.7.7.7.7.7.7.7.7.                                                          "
};
